<?xml version="1.0" standalone="no"?><svg xmlns="http://www.w3.org/2000/svg" viewBox="0 0 1440 320"><path fill="#0099ff" fill-opacity="1" d="M0,224L26.7,229.3C53.3,235,107,245,160,234.7C213.3,224,267,192,320,197.3C373.3,203,427,245,480,229.3C533.3,213,587,139,640,122.7C693.3,107,747,149,800,186.7C853.3,224,907,256,960,256C1013.3,256,1067,224,1120,229.3C1173.3,235,1227,277,1280,261.3C1333.3,245,1387,171,1413,133.3L1440,96L1440,0L1413.3,0C1386.7,0,1333,0,1280,0C1226.7,0,1173,0,1120,0C1066.7,0,1013,0,960,0C906.7,0,853,0,800,0C746.7,0,693,0,640,0C586.7,0,533,0,480,0C426.7,0,373,0,320,0C266.7,0,213,0,160,0C106.7,0,53,0,27,0L0,0Z"></path></svg>